# xmcd CD database file
#
# Track frame offsets:
#	150
#	40687
#	84557
#	128935
#	171781
#	205227
#
# Disc length: 3369 seconds
#
# Revision: 0
# Processed by: cddbd v1.5.2PL0 Copyright (c) Steve Scherf et al.
# Submitted via: CDex 1.51
#
DISCID=490d2706
DTITLE=Matt Bauder - Nightshades
DYEAR=2013
DGENRE=Jazz
TTITLE0=Octavia minor
TTITLE1=Weekley resolution
TTITLE2=Starr Wykoff
TTITLE3=RULE OF THIRD
TTITLE4=August and counting
TTITLE5=Nightshades
EXTD=YEAR: 2013
EXTT0=
EXTT1=
EXTT2=
EXTT3=
EXTT4=
EXTT5=
PLAYORDER=
